<svg width="20" height="20" viewBox="0 0 20 20" fill="none" xmlns="http://www.w3.org/2000/svg">
<g clip-path="url(#clip0_1027_16490)">
<path fill-rule="evenodd" clip-rule="evenodd" d="M2.55859 7.45533C2.55859 7.0852 2.85864 6.78516 3.22877 6.78516H5.02967C5.34701 6.78516 5.62084 7.00772 5.6857 7.31836L6.13406 9.46585H14.6217C15.362 9.46585 15.9621 10.0659 15.9621 10.8062V13.7047C15.9621 14.3392 15.5172 14.8868 14.8961 15.0167L7.6135 16.5399C6.88888 16.6914 6.17861 16.2268 6.02712 15.5022L4.48497 8.1255H3.22877C2.85864 8.1255 2.55859 7.82546 2.55859 7.45533ZM7.20018 14.5722C7.27584 14.9346 7.631 15.167 7.99336 15.0912L14.0887 13.8167C14.3993 13.7518 14.6217 13.478 14.6217 13.1607V11.4764C14.6217 11.1062 14.3217 10.8062 13.9515 10.8062H6.4139L7.20018 14.5722Z" fill="#FF8F27"/>
<circle cx="6.82397" cy="18.9705" r="1.2185" fill="#FF8F27"/>
<circle cx="12.9158" cy="18.9705" r="1.2185" fill="#FF8F27"/>
<path fill-rule="evenodd" clip-rule="evenodd" d="M9.9705 0.650391C10.3609 0.650391 10.6773 0.966848 10.6773 1.35722V6.02227C10.6773 6.41264 10.3609 6.7291 9.9705 6.7291C9.58013 6.7291 9.26367 6.41264 9.26367 6.02227V1.35722C9.26367 0.966848 9.58013 0.650391 9.9705 0.650391Z" fill="#FF8F27"/>
<path fill-rule="evenodd" clip-rule="evenodd" d="M7.56249 3.61327C7.83853 3.33724 8.28606 3.33724 8.5621 3.61327L9.97073 5.0219L11.3794 3.61327C11.6554 3.33724 12.1029 3.33724 12.379 3.61327C12.655 3.88931 12.655 4.33685 12.379 4.61288L10.4705 6.52131C10.1945 6.79734 9.74696 6.79734 9.47092 6.52131L7.56249 4.61288C7.28646 4.33685 7.28646 3.88931 7.56249 3.61327Z" fill="#FF8F27"/>
</g>
<defs>
<clipPath id="clip0_1027_16490">
<rect width="20" height="20" fill="white"/>
</clipPath>
</defs>
</svg>
