<svg width="18" height="18" viewBox="0 0 18 18" fill="none" xmlns="http://www.w3.org/2000/svg">
<path d="M14.8281 2.86868C14.3171 2.7076 13.7428 2.62939 13.0793 2.58845C12.321 2.54165 11.3994 2.54165 10.2687 2.54166H7.71663C6.38047 2.54165 5.333 2.54165 4.49618 2.62121C3.64322 2.70231 2.94481 2.87046 2.32912 3.24776C1.68438 3.64286 1.14229 4.18494 0.747193 4.82968C0.733196 4.85253 0.719486 4.87548 0.706058 4.89856C0.77047 3.69593 0.938708 2.89943 1.37814 2.26888C1.60809 1.93891 1.88644 1.64872 2.20295 1.40898C3.18298 0.666656 4.58099 0.666656 7.37699 0.666656H11.8509C13.2569 0.666656 13.9599 0.666656 14.3967 1.12203C14.7322 1.47177 14.81 1.98522 14.8281 2.86868Z" fill="url(#paint0_linear_1224_2142)"/>
<path d="M1.28002 5.15625C0.666016 6.1582 0.666016 7.52213 0.666016 10.25C0.666016 12.9778 0.666016 14.3418 1.28002 15.3437C1.62358 15.9044 2.09496 16.3758 2.6556 16.7193C3.65756 17.3333 5.02149 17.3333 7.74935 17.3333H10.2493C12.9772 17.3333 14.3411 17.3333 15.3431 16.7193C15.9037 16.3758 16.3751 15.9044 16.7187 15.3437C17.1219 14.6857 17.2603 13.8715 17.3079 12.6174H12.0297C10.4294 12.6174 9.132 11.3201 9.132 9.7197C9.132 8.11933 10.4294 6.82198 12.0297 6.82198H17.2308C17.1472 6.13226 16.9952 5.60754 16.7187 5.15625C16.3751 4.5956 15.9037 4.12422 15.3431 3.78066C15.1835 3.68285 15.0147 3.60063 14.8327 3.5315C13.872 3.16666 12.5427 3.16666 10.2493 3.16666H7.74935C5.02149 3.16666 3.65756 3.16666 2.6556 3.78066C2.09496 4.12422 1.62358 4.5956 1.28002 5.15625Z" fill="url(#paint1_linear_1224_2142)"/>
<path fill-rule="evenodd" clip-rule="evenodd" d="M17.3143 8.07198H12.0297C11.1197 8.07198 10.382 8.80969 10.382 9.7197C10.382 10.6297 11.1197 11.3674 12.0297 11.3674H17.3307C17.3327 11.0223 17.3327 10.6509 17.3327 10.25C17.3327 9.4023 17.3327 8.68631 17.3143 8.07198ZM12.0297 9.0947C11.6845 9.0947 11.4047 9.37453 11.4047 9.7197C11.4047 10.0649 11.6845 10.3447 12.0297 10.3447H14.3025C14.6476 10.3447 14.9275 10.0649 14.9275 9.7197C14.9275 9.37453 14.6476 9.0947 14.3025 9.0947H12.0297Z" fill="url(#paint2_linear_1224_2142)"/>
<defs>
<linearGradient id="paint0_linear_1224_2142" x1="-7.65501" y1="8.98768" x2="8.98704" y2="25.6297" gradientUnits="userSpaceOnUse">
<stop stop-color="#00FFFF"/>
<stop offset="1" stop-color="#4579F5"/>
</linearGradient>
<linearGradient id="paint1_linear_1224_2142" x1="-7.65501" y1="8.98768" x2="8.98704" y2="25.6297" gradientUnits="userSpaceOnUse">
<stop stop-color="#00FFFF"/>
<stop offset="1" stop-color="#4579F5"/>
</linearGradient>
<linearGradient id="paint2_linear_1224_2142" x1="-7.65501" y1="8.98768" x2="8.98704" y2="25.6297" gradientUnits="userSpaceOnUse">
<stop stop-color="#00FFFF"/>
<stop offset="1" stop-color="#4579F5"/>
</linearGradient>
</defs>
</svg>
