<svg width="80" height="80" viewBox="0 0 80 80" fill="none" xmlns="http://www.w3.org/2000/svg">
<rect width="80" height="80" rx="16" fill="white" fill-opacity="0.04"/>
<path fill-rule="evenodd" clip-rule="evenodd" d="M25.666 40.0003C25.666 32.0842 32.0833 25.667 39.9993 25.667C47.9154 25.667 54.3327 32.0842 54.3327 40.0003C54.3327 47.9164 47.9154 54.3337 39.9993 54.3337C32.0833 54.3337 25.666 47.9164 25.666 40.0003ZM44.2489 35.7507C44.6395 36.1413 44.6395 36.7744 44.2489 37.165L36.7065 44.7074C36.3159 45.0979 35.6828 45.0979 35.2922 44.7074C34.9017 44.3169 34.9017 43.6837 35.2922 43.2932L42.8347 35.7507C43.2252 35.3602 43.8584 35.3602 44.2489 35.7507ZM35.9993 37.3337C35.263 37.3337 34.666 36.7367 34.666 36.0003C34.666 35.2639 35.263 34.667 35.9993 34.667C36.7357 34.667 37.3327 35.2639 37.3327 36.0003C37.3327 36.7367 36.7357 37.3337 35.9993 37.3337ZM43.9993 45.3337C43.263 45.3337 42.666 44.7367 42.666 44.0003C42.666 43.2639 43.263 42.667 43.9993 42.667C44.7357 42.667 45.3327 43.2639 45.3327 44.0003C45.3327 44.7367 44.7357 45.3337 43.9993 45.3337Z" fill="white"/>
</svg>
