<svg width="160" height="160" viewBox="0 0 160 160" fill="none" xmlns="http://www.w3.org/2000/svg">
<rect width="160" height="160" rx="24" fill="white" fill-opacity="0.04"/>
<path d="M77.6183 67.4836C77.7847 67.3875 77.9538 67.3012 78.125 67.2243V77.2999C74.0575 75.5036 73.6766 69.7594 77.6183 67.4836Z" fill="white"/>
<path d="M81.875 92.776V82.6999C85.943 84.4959 86.3241 90.2406 82.3822 92.5164C82.2156 92.6126 82.0463 92.699 81.875 92.776Z" fill="white"/>
<path fill-rule="evenodd" clip-rule="evenodd" d="M53.125 80C53.125 65.1573 65.1573 53.125 80 53.125C94.8427 53.125 106.875 65.1573 106.875 80C106.875 94.8427 94.8427 106.875 80 106.875C65.1573 106.875 53.125 94.8427 53.125 80ZM81.875 62.5C81.875 61.4645 81.0355 60.625 80 60.625C78.9645 60.625 78.125 61.4645 78.125 62.5V63.2702C77.3081 63.4752 76.5065 63.7953 75.7433 64.236C68.9387 68.1647 69.8036 78.2473 77.1779 80.9597L78.125 81.3081V93.0486C76.7878 92.6714 75.5931 91.7924 74.8451 90.4969L73.9062 88.8706C73.3884 87.9738 72.2417 87.6666 71.3449 88.1843C70.4481 88.7021 70.1408 89.8488 70.6586 90.7456L71.5975 92.3719C73.0437 94.8767 75.4817 96.449 78.125 96.8837V97.5C78.125 98.5355 78.9645 99.375 80 99.375C81.0355 99.375 81.875 98.5355 81.875 97.5V96.7299C82.692 96.525 83.4938 96.2048 84.2572 95.764C91.0618 91.8354 90.197 81.7527 82.8227 79.0403L81.875 78.6918V66.9513C83.2124 67.3284 84.4073 68.2074 85.1554 69.5031L86.0943 71.1294C86.6121 72.0262 87.7588 72.3334 88.6556 71.8157C89.5524 71.2979 89.8597 70.1512 89.3419 69.2544L88.403 67.6281C86.9568 65.1232 84.5185 63.5508 81.875 63.1162V62.5Z" fill="white"/>
</svg>
