<svg width="18" height="17" viewBox="0 0 18 17" fill="none" xmlns="http://www.w3.org/2000/svg">
<path d="M17.7379 5.79521C17.7331 5.73419 17.7277 5.68741 17.7228 5.6553C17.478 2.8829 15.4441 0.688477 12.8044 0.688477C11.2751 0.688477 9.87756 1.41215 8.96248 2.58533C8.06876 1.40426 6.72446 0.688477 5.20328 0.688477C2.57258 0.688477 0.543291 2.86803 0.282011 5.67105C0.276988 5.70371 0.271932 5.74348 0.267319 5.79026C0.222662 6.24312 0.259802 6.84317 0.432383 7.57429C0.799071 9.12766 1.65654 10.5425 2.86594 11.6388L8.49773 16.5904C8.77203 16.8316 9.18252 16.8325 9.45788 16.5925L15.131 11.649C16.4681 10.2574 17.2628 9.00561 17.5779 7.56312C17.736 6.83869 17.7728 6.24257 17.7379 5.79521Z" fill="url(#paint0_linear_1262_2540)"/>
<defs>
<linearGradient id="paint0_linear_1262_2540" x1="-8.48707" y1="8.7183" x2="7.51553" y2="26.1304" gradientUnits="userSpaceOnUse">
<stop stop-color="#00FFAA"/>
<stop offset="0.517251" stop-color="#4579F5"/>
<stop offset="0.999815" stop-color="#9C42F5"/>
</linearGradient>
</defs>
</svg>
