<svg width="18" height="17" viewBox="0 0 18 17" fill="none" xmlns="http://www.w3.org/2000/svg">
<path d="M17.7379 5.60674C17.7331 5.54571 17.7277 5.49894 17.7228 5.46682C17.478 2.69442 15.4441 0.5 12.8044 0.5C11.2751 0.5 9.87756 1.22367 8.96248 2.39685C8.06876 1.21578 6.72446 0.5 5.20328 0.5C2.57258 0.5 0.543291 2.67956 0.282011 5.48257C0.276988 5.51524 0.271932 5.55501 0.267319 5.60178C0.222662 6.05464 0.259802 6.65469 0.432383 7.38581C0.799071 8.93918 1.65654 10.354 2.86594 11.4503L8.49773 16.4019C8.77203 16.6431 9.18252 16.644 9.45788 16.404L15.131 11.4605C16.4681 10.069 17.2628 8.81713 17.5779 7.37464C17.736 6.65022 17.7728 6.05409 17.7379 5.60674ZM16.1537 7.06371C15.9058 8.19822 15.2465 9.23688 14.1258 10.4068L8.98137 14.886L3.83678 10.3629C2.84999 9.46823 2.14869 8.31107 1.8512 7.0509C1.71613 6.4787 1.689 6.04005 1.72126 5.71324L1.73154 5.63991C1.91905 3.5291 3.37559 1.95783 5.20328 1.95783C6.56394 1.95783 7.72158 2.78766 8.28418 4.12044C8.53491 4.71434 9.37652 4.71434 9.62725 4.12044C10.1786 2.81438 11.4183 1.95783 12.8044 1.95783C14.6321 1.95783 16.0886 3.5292 16.2761 5.64063C16.2811 5.68307 16.2825 5.69482 16.2845 5.72034C16.3086 6.02871 16.2806 6.48211 16.1537 7.06371Z" fill="white"/>
</svg>
