<svg width="20" height="20" viewBox="0 0 20 20" fill="none" xmlns="http://www.w3.org/2000/svg">
<path d="M18.7379 7.60674C18.7331 7.54571 18.7277 7.49894 18.7228 7.46682C18.478 4.69442 16.4441 2.5 13.8044 2.5C12.2751 2.5 10.8776 3.22367 9.96248 4.39685C9.06876 3.21578 7.72446 2.5 6.20328 2.5C3.57258 2.5 1.54329 4.67956 1.28201 7.48257C1.27699 7.51524 1.27193 7.55501 1.26732 7.60178C1.22266 8.05464 1.2598 8.65469 1.43238 9.38581C1.79907 10.9392 2.65654 12.354 3.86594 13.4503L9.49773 18.4019C9.77203 18.6431 10.1825 18.644 10.4579 18.404L16.131 13.4605C17.4681 12.069 18.2628 10.8171 18.5779 9.37464C18.736 8.65022 18.7728 8.05409 18.7379 7.60674ZM17.1537 9.06371C16.9058 10.1982 16.2465 11.2369 15.1258 12.4068L9.98137 16.886L4.83678 12.3629C3.84999 11.4682 3.14869 10.3111 2.8512 9.0509C2.71613 8.4787 2.689 8.04005 2.72126 7.71324L2.73154 7.63991C2.91905 5.5291 4.37559 3.95783 6.20328 3.95783C7.56394 3.95783 8.72158 4.78766 9.28418 6.12044C9.53491 6.71434 10.3765 6.71434 10.6272 6.12044C11.1786 4.81438 12.4183 3.95783 13.8044 3.95783C15.6321 3.95783 17.0886 5.5292 17.2761 7.64063C17.2811 7.68307 17.2825 7.69482 17.2845 7.72034C17.3086 8.02871 17.2806 8.48211 17.1537 9.06371Z" fill="#212429"/>
</svg>
