<svg width="466" height="472" viewBox="0 0 466 472" fill="none" xmlns="http://www.w3.org/2000/svg">
<g filter="url(#filter0_f_12_21361)">
<path fill-rule="evenodd" clip-rule="evenodd" d="M164.27 214.353C151.737 254.248 172.453 296.417 210.448 308.353C248.443 320.289 289.552 297.544 302.085 257.647C314.618 217.752 293.904 175.584 255.907 163.647C217.912 151.711 176.803 174.458 164.27 214.353ZM169.538 202.5C185.736 170.424 221.992 153.457 255.775 164.07C285.184 173.309 304.18 200.766 305.27 231.191C304.384 219.747 300.553 208.61 293.94 198.652C283.492 182.921 267.35 172.011 248.489 167.935C216.322 160.985 184.424 175.937 169.538 202.5ZM161.069 240.247C161.944 270.896 180.992 298.635 210.581 307.93C244.198 318.491 280.268 301.741 296.581 269.968C290.865 280.029 282.59 288.591 272.284 294.924C256.054 304.894 236.729 308.14 217.867 304.065C215.597 303.575 213.368 302.983 211.199 302.301C182.643 293.334 163.059 268.316 161.069 240.247ZM255.097 170.142C252.904 169.453 250.668 168.861 248.391 168.369C213.698 160.873 179.321 178.993 166.516 209.674C170.431 201.374 176.329 193.895 183.886 187.803C199.428 175.27 220.448 169.65 241.554 172.377C274.401 176.624 299.567 199.92 304.489 227.802C303.167 217.647 299.494 207.807 293.587 198.913C284.46 185.167 270.961 175.126 255.097 170.142ZM210.882 296.568C185.241 288.515 166.413 268.359 161.988 244.844C165.676 270.822 184.532 293.458 211.331 301.879C213.492 302.558 215.702 303.143 217.965 303.633C236.722 307.686 255.939 304.458 272.075 294.545C284.809 286.722 294.422 275.474 299.904 262.199C295.99 270.55 290.07 278.074 282.476 284.197C266.933 296.729 245.914 302.35 224.808 299.622C219.987 298.999 215.33 297.966 210.882 296.568ZM241.486 172.817C246.283 173.437 250.914 174.466 255.342 175.857C279.244 183.365 297.193 201.44 302.962 222.921C294.971 197.967 267.841 178.606 235.106 176.931C212.791 175.789 191.816 182.984 177.561 196.671C171.78 202.221 167.446 208.502 164.665 215.283C168.339 204.88 175.025 195.499 184.138 188.15C199.591 175.692 220.493 170.102 241.486 172.817ZM163.395 249.087C169.531 268.244 186.947 284.103 209.521 291.195C216.348 293.34 223.649 294.682 231.247 295.071C253.564 296.213 274.539 289.018 288.794 275.331C294.562 269.793 298.89 263.528 301.672 256.763C297.995 267.148 291.316 276.512 282.216 283.85C266.765 296.309 245.861 301.897 224.868 299.183C220.071 298.562 215.44 297.534 211.012 296.143C187.115 288.636 169.167 270.564 163.395 249.087ZM256.708 181.232C249.909 179.096 242.645 177.759 235.073 177.372C212.871 176.237 192.013 183.388 177.843 196.991C170.22 204.311 165.133 212.911 162.833 222.255C164.693 216.174 167.968 210.391 172.586 205.113C185.087 190.824 206.236 182.015 229.165 181.548C261.747 180.886 290.562 196.759 301.088 219.055C293.975 201.84 277.554 187.78 256.708 181.232ZM207.205 286.233C187.84 280.151 172.356 267.997 165.248 252.906C172.353 270.138 188.784 284.214 209.645 290.77C216.444 292.905 223.708 294.243 231.281 294.629C253.482 295.765 274.341 288.614 288.51 275.01C296.124 267.699 301.208 259.112 303.512 249.782C301.65 255.85 298.379 261.619 293.769 266.887C281.269 281.176 260.12 289.985 237.19 290.452C226.637 290.667 216.475 289.145 207.205 286.233ZM229.16 181.991C239.68 181.777 249.799 183.292 259.035 186.193C276.671 191.733 291.067 202.331 298.78 215.592C285.994 195.94 255.892 183.401 223.727 186.193C200.156 188.24 179.658 198.257 168.893 212.988C165.393 217.776 163.057 222.874 161.923 228.116C163.178 219.994 166.891 212.271 172.897 205.405C185.317 191.208 206.351 182.455 229.16 181.991ZM167.561 256.384C174.939 267.74 188.097 276.724 204.098 281.749C215.805 285.426 229.034 286.987 242.629 285.805C266.2 283.758 286.699 273.742 297.464 259.01C300.959 254.228 303.294 249.137 304.429 243.901C303.171 252.016 299.461 259.734 293.459 266.595C281.039 280.792 260.007 289.545 237.195 290.011C226.675 290.224 216.556 288.71 207.321 285.809C189.674 280.264 175.271 269.657 167.561 256.384ZM262.147 190.675C250.486 187.012 237.303 185.458 223.749 186.635C200.3 188.671 179.919 198.62 169.228 213.25C164.592 219.593 162.022 226.482 161.611 233.528C162.17 229 163.759 224.515 166.362 220.203C175.307 205.383 194.907 194.404 218.792 190.833C250.29 186.125 281.287 195.5 296.059 212.532C288.462 202.835 276.449 195.168 262.147 190.675ZM200.465 277.813C187.897 273.864 177.293 267.53 170.31 259.485C184.108 277.08 212.441 287.984 242.605 285.365C266.054 283.328 286.437 273.38 297.126 258.749C301.757 252.414 304.327 245.532 304.742 238.495C304.181 243.015 302.592 247.494 299.993 251.799C291.048 266.619 271.448 277.598 247.563 281.168C230.958 283.65 214.488 282.218 200.465 277.813ZM218.841 191.269C235.401 188.793 251.815 190.22 265.783 194.608C276.666 198.027 286.064 203.245 292.884 209.817C276.388 195.404 244.922 189.029 214.359 195.426C190.498 200.42 171.99 212.113 164.85 226.703C162.945 230.596 161.942 234.567 161.841 238.511C161.568 232.386 163.209 226.249 166.721 220.43C175.596 205.723 195.083 194.821 218.841 191.269ZM173.45 262.162C179.449 267.411 187.433 271.596 196.637 274.487C212.727 279.542 232.547 280.643 251.998 276.572C275.859 271.579 294.367 259.885 301.506 245.295C303.412 241.4 304.416 237.426 304.515 233.48C304.791 239.609 303.15 245.75 299.636 251.572C290.759 266.279 271.275 277.179 247.515 280.731C218.04 285.137 189.017 277.18 173.45 262.162ZM269.605 197.93C253.582 192.896 233.828 191.801 214.43 195.863C190.7 200.829 172.306 212.43 165.228 226.896C162.619 232.229 161.729 237.711 162.563 243.061C162.29 239.586 162.832 236.033 164.199 232.489C169.636 218.395 186.913 206.23 210.417 199.95C239.854 192.085 271.433 195.683 289.357 207.555C283.89 203.555 277.163 200.304 269.605 197.93ZM302.159 239.511C303.523 235.975 304.066 232.429 303.796 228.962C304.624 234.304 303.733 239.779 301.128 245.104C294.05 259.57 275.655 271.173 251.925 276.139C223.363 282.118 194.023 276.919 176.971 264.426C181.51 267.437 186.926 269.916 192.962 271.812C210.758 277.403 233.947 277.926 255.94 272.05C279.445 265.771 296.722 253.606 302.159 239.511ZM210.51 200.379C232.444 194.519 255.555 195.034 273.268 200.598C277.713 201.995 281.818 203.709 285.48 205.722C266.416 196.316 235.083 195.266 206.954 204.375C184.113 211.772 168.149 224.188 164.251 237.589C163.304 240.843 163.132 244.054 163.718 247.145C162.421 242.454 162.705 237.539 164.592 232.645C169.975 218.684 187.141 206.623 210.51 200.379ZM302.637 224.85C303.224 227.942 303.052 231.153 302.105 234.409C298.208 247.81 282.244 260.226 259.403 267.623C235.282 275.437 208.803 275.776 189.728 269.783C186.539 268.781 183.557 267.603 180.828 266.252C199.075 276.303 228.388 278.958 255.845 271.621C279.215 265.377 296.38 253.316 301.766 239.355C303.654 234.459 303.936 229.543 302.637 224.85ZM276.487 202.625C257.506 196.662 231.119 197.01 207.069 204.799C184.367 212.151 168.513 224.454 164.658 237.708C163.339 242.24 163.558 246.686 165.266 250.834C164.397 248.043 164.26 245.093 164.879 242.052C167.436 229.479 182.046 217.002 203.96 208.676C230.634 198.541 261.403 197.294 281.312 204.342C279.765 203.721 278.154 203.149 276.487 202.625ZM301.478 229.946C302.093 226.918 301.96 223.982 301.102 221.202C302.798 225.34 303.012 229.775 301.697 234.295C297.841 247.55 281.986 259.852 259.286 267.204C233.094 275.686 204.132 275.344 184.981 267.635C185.68 267.884 186.393 268.122 187.118 268.35C207.047 274.611 236.632 273.114 262.397 263.322C284.31 254.996 298.92 242.519 301.478 229.946ZM276.926 203.419C257.159 197.945 228.865 199.678 204.095 209.09C182.326 217.363 167.82 229.715 165.296 242.133C164.44 246.34 165.07 250.37 167.12 254.036C166.011 251.514 165.617 248.797 165.965 245.944C167.392 234.271 180.646 221.894 201.417 212.831C226.53 201.876 256.46 198.591 276.926 203.419ZM299.23 217.951C300.343 220.476 300.74 223.198 300.391 226.056C298.964 237.729 285.71 250.106 264.939 259.169C239.837 270.119 209.922 273.404 189.455 268.586C209.22 274.052 237.503 272.315 262.261 262.908C284.031 254.635 298.536 242.284 301.061 229.865C301.918 225.654 301.285 221.62 299.23 217.951ZM201.572 213.24C224.837 203.091 252.236 199.537 272.338 202.94C251.593 200.191 222.763 205.253 199.31 216.821C179.842 226.426 167.922 238.577 167.422 249.323C167.296 252.045 167.924 254.585 169.273 256.888C166.893 253.628 165.903 249.94 166.386 245.988C167.794 234.479 180.947 222.238 201.572 213.24ZM298.934 222.677C299.059 219.974 298.44 217.451 297.111 215.161C299.468 218.408 300.446 222.081 299.965 226.015C298.559 237.524 285.406 249.765 264.781 258.763C241.477 268.929 214.026 272.478 193.915 269.046C214.668 271.825 243.555 266.765 267.046 255.178C286.514 245.574 298.434 233.423 298.934 222.677ZM267.781 202.906C247.587 201.374 221.225 206.495 199.483 217.222C180.165 226.753 168.338 238.756 167.846 249.332C167.673 253.056 168.968 256.434 171.636 259.319C170.075 257.225 169.242 254.852 169.177 252.249C168.931 242.416 179.564 230.597 197.617 220.632C219.407 208.608 247.005 202.03 267.781 202.906ZM294.715 212.676C296.278 214.772 297.113 217.147 297.178 219.753C297.423 229.585 286.791 241.405 268.739 251.369C246.966 263.384 219.394 269.961 198.624 269.098C218.811 270.618 245.148 265.495 266.871 254.778C286.189 245.247 298.018 233.244 298.508 222.668C298.682 218.942 297.385 215.562 294.715 212.676ZM197.809 221.025C217.949 209.909 243.053 203.457 263.088 203.267C242.531 204.112 216.381 211.958 196.319 224.252C179.744 234.407 170.346 245.818 171.179 254.772C171.412 257.279 172.435 259.506 174.202 261.409C171.26 258.867 169.692 255.763 169.604 252.226C169.361 242.57 179.906 230.906 197.809 221.025ZM295.175 217.229C294.941 214.718 293.916 212.489 292.144 210.584C295.093 213.128 296.665 216.235 296.753 219.776C296.996 229.433 286.452 241.097 268.548 250.978C248.404 262.095 223.292 268.546 203.254 268.734C223.813 267.891 249.969 260.046 270.035 247.749C286.608 237.593 296.008 226.183 295.175 217.229ZM258.548 203.995C238.861 205.701 215.088 213.259 196.529 224.631C180.105 234.696 170.787 245.943 171.603 254.718C171.917 258.092 173.73 260.945 176.924 263.164C174.963 261.447 173.765 259.357 173.381 256.933C172.095 248.809 180.323 237.867 195.393 227.666C213.762 215.232 238.404 206.35 258.548 203.995ZM289.419 208.827C291.387 210.545 292.589 212.639 292.974 215.068C294.261 223.193 286.032 234.135 270.962 244.335C252.592 256.769 227.951 265.651 207.807 268.007C227.495 266.301 251.27 258.743 269.829 247.369C286.253 237.305 295.571 226.057 294.754 217.282C294.44 213.903 292.622 211.047 289.419 208.827ZM195.618 228.035C212.595 216.543 234.934 208.093 254.087 205.049C234.542 208.732 211.505 218.429 194.817 230.867C181.043 241.133 174.093 251.302 175.753 258.766C176.275 261.118 177.635 263.078 179.779 264.613C176.349 262.704 174.314 260.083 173.802 256.85C172.543 248.905 180.699 238.133 195.618 228.035ZM290.605 213.235C290.084 210.889 288.729 208.932 286.595 207.399C290.013 209.308 292.042 211.925 292.553 215.151C293.813 223.095 285.657 233.867 270.737 243.965C253.772 255.449 231.451 263.896 212.307 266.945C231.844 263.257 254.863 253.564 271.541 241.133C285.314 230.868 292.264 220.698 290.605 213.235ZM249.691 206.409C231.247 210.619 210.447 219.752 195.057 231.224C181.633 241.23 174.571 251.483 176.165 258.654C176.854 261.753 179.082 264.151 182.715 265.759C180.411 264.407 178.905 262.576 178.256 260.299C176.334 253.556 182.277 243.915 194.564 233.848C209.584 221.541 230.921 211.243 249.691 206.409ZM283.66 206.25C285.954 207.602 287.453 209.429 288.102 211.7C290.024 218.442 284.081 228.084 271.794 238.151C256.766 250.464 235.414 260.767 216.637 265.597C235.087 261.389 255.899 252.253 271.297 240.775C284.721 230.77 291.783 220.517 290.189 213.345C289.502 210.253 287.281 207.859 283.66 206.25ZM271.536 237.808C257.617 249.214 238.261 258.888 220.583 264.063C238.52 258.287 258.271 247.529 271.744 235.393C282.596 225.619 287.603 216.524 285.486 210.444C284.696 208.176 282.919 206.425 280.275 205.243C284.293 206.545 286.817 208.771 287.692 211.839C289.563 218.398 283.674 227.861 271.536 237.808ZM194.612 236.607C208.063 224.491 227.772 213.748 245.687 207.964C228.032 213.146 208.717 222.808 194.821 234.194C182.683 244.141 176.794 253.604 178.665 260.163C179.54 263.233 182.066 265.459 186.087 266.761C183.441 265.579 181.661 263.827 180.87 261.556C178.753 255.476 183.762 246.382 194.612 236.607ZM241.835 209.734C225.091 215.729 207.311 225.746 194.886 236.939C184.179 246.583 179.217 255.498 181.271 261.394C182.258 264.229 184.887 266.221 188.896 267.263C186.261 266.267 184.446 264.685 183.569 262.557C181.311 257.08 185.454 248.546 194.937 239.14C206.856 227.318 224.896 216.306 241.835 209.734ZM277.462 204.736C280.096 205.733 281.909 207.314 282.786 209.441C285.044 214.918 280.9 223.451 271.418 232.857C259.479 244.699 241.398 255.728 224.434 262.297C241.204 256.306 259.024 246.273 271.47 235.062C282.177 225.417 287.139 216.503 285.085 210.606C284.177 207.994 281.872 206.096 278.381 204.999C278.083 204.906 277.777 204.818 277.462 204.736ZM276.515 204.875C275.849 204.666 275.135 204.491 274.374 204.351C277.115 205.167 279.038 206.619 280.022 208.675C282.379 213.6 279.032 221.572 270.841 230.549C260.336 242.06 243.838 253.248 227.878 260.445C243.707 253.795 260.064 243.52 271.129 232.546C280.472 223.279 284.578 214.926 282.393 209.629C281.478 207.404 279.469 205.803 276.515 204.875ZM279.645 208.883C277.672 204.758 271.658 203.183 262.684 204.428C262.463 204.458 262.241 204.491 262.018 204.524C241.38 207.655 211.716 224.33 195.819 241.75C187.761 250.58 184.443 258.368 186.715 263.117C188.729 267.324 194.943 268.878 204.214 267.494C224.857 264.413 254.612 247.705 270.541 230.25C278.599 221.42 281.917 213.632 279.645 208.883ZM195.512 241.448C205.97 229.989 222.368 218.849 238.262 211.649C222.499 218.301 206.24 228.532 195.225 239.46C185.882 248.727 181.776 257.08 183.961 262.376C185.087 265.107 187.862 266.897 192.012 267.658C191.933 267.634 191.854 267.61 191.776 267.586C189.142 266.758 187.29 265.328 186.331 263.322C183.974 258.397 187.321 250.425 195.512 241.448Z" fill="url(#paint0_angular_12_21361)"/>
</g>
<path fill-rule="evenodd" clip-rule="evenodd" d="M164.729 214.353C152.196 254.248 172.912 296.417 210.907 308.353C248.902 320.289 290.011 297.544 302.544 257.647C315.077 217.752 294.363 175.584 256.366 163.647C218.371 151.711 177.262 174.458 164.729 214.353ZM169.997 202.5C186.195 170.424 222.451 153.457 256.234 164.07C285.643 173.309 304.639 200.766 305.729 231.191C304.843 219.747 301.012 208.61 294.399 198.652C283.951 182.921 267.809 172.011 248.948 167.935C216.781 160.985 184.883 175.937 169.997 202.5ZM161.528 240.247C162.403 270.896 181.451 298.635 211.04 307.93C244.657 318.491 280.727 301.741 297.04 269.968C291.324 280.029 283.049 288.591 272.743 294.924C256.513 304.894 237.188 308.14 218.326 304.065C216.056 303.575 213.827 302.983 211.658 302.301C183.102 293.334 163.518 268.316 161.528 240.247ZM255.556 170.142C253.363 169.453 251.127 168.861 248.85 168.369C214.157 160.873 179.78 178.993 166.975 209.674C170.89 201.374 176.788 193.895 184.345 187.803C199.887 175.27 220.907 169.65 242.013 172.377C274.86 176.624 300.026 199.92 304.948 227.802C303.626 217.647 299.953 207.807 294.046 198.913C284.919 185.167 271.42 175.126 255.556 170.142ZM211.341 296.568C185.7 288.515 166.872 268.359 162.447 244.844C166.135 270.822 184.991 293.458 211.79 301.879C213.951 302.558 216.161 303.143 218.424 303.633C237.181 307.686 256.398 304.458 272.534 294.545C285.268 286.722 294.881 275.474 300.363 262.199C296.449 270.55 290.529 278.074 282.935 284.197C267.392 296.729 246.373 302.35 225.267 299.622C220.446 298.999 215.789 297.966 211.341 296.568ZM241.945 172.817C246.742 173.437 251.373 174.466 255.801 175.857C279.703 183.365 297.652 201.44 303.421 222.921C295.43 197.967 268.3 178.606 235.565 176.931C213.25 175.789 192.275 182.984 178.02 196.671C172.239 202.221 167.905 208.502 165.124 215.283C168.798 204.88 175.484 195.499 184.597 188.15C200.05 175.692 220.952 170.102 241.945 172.817ZM163.854 249.087C169.99 268.244 187.406 284.103 209.98 291.195C216.807 293.34 224.108 294.682 231.706 295.071C254.023 296.213 274.998 289.018 289.253 275.331C295.021 269.793 299.349 263.528 302.131 256.763C298.454 267.148 291.775 276.512 282.675 283.85C267.224 296.309 246.32 301.897 225.327 299.183C220.53 298.562 215.899 297.534 211.471 296.143C187.574 288.636 169.626 270.564 163.854 249.087ZM257.167 181.232C250.368 179.096 243.104 177.759 235.532 177.372C213.33 176.237 192.472 183.388 178.302 196.991C170.679 204.311 165.592 212.911 163.292 222.255C165.152 216.174 168.427 210.391 173.045 205.113C185.546 190.824 206.695 182.015 229.624 181.548C262.206 180.886 291.021 196.759 301.547 219.055C294.434 201.84 278.013 187.78 257.167 181.232ZM207.664 286.233C188.299 280.151 172.815 267.997 165.707 252.906C172.812 270.138 189.243 284.214 210.104 290.77C216.903 292.905 224.167 294.243 231.74 294.629C253.941 295.765 274.8 288.614 288.969 275.01C296.583 267.699 301.667 259.112 303.971 249.782C302.109 255.85 298.838 261.619 294.228 266.887C281.728 281.176 260.579 289.985 237.649 290.452C227.096 290.667 216.934 289.145 207.664 286.233ZM229.619 181.991C240.139 181.777 250.258 183.292 259.494 186.193C277.13 191.733 291.526 202.331 299.239 215.592C286.453 195.94 256.351 183.401 224.186 186.193C200.615 188.24 180.116 198.257 169.352 212.988C165.852 217.776 163.516 222.874 162.382 228.116C163.637 219.994 167.35 212.271 173.356 205.405C185.775 191.208 206.81 182.455 229.619 181.991ZM168.02 256.384C175.398 267.74 188.556 276.724 204.557 281.749C216.264 285.426 229.493 286.987 243.088 285.805C266.659 283.758 287.158 273.742 297.923 259.01C301.418 254.228 303.753 249.137 304.888 243.901C303.63 252.016 299.92 259.734 293.918 266.595C281.498 280.792 260.466 289.545 237.654 290.011C227.134 290.224 217.015 288.71 207.78 285.809C190.133 280.264 175.73 269.657 168.02 256.384ZM262.606 190.675C250.945 187.012 237.762 185.458 224.208 186.635C200.759 188.671 180.378 198.62 169.687 213.25C165.051 219.593 162.481 226.482 162.07 233.528C162.629 229 164.218 224.515 166.821 220.203C175.766 205.383 195.366 194.404 219.251 190.833C250.749 186.125 281.746 195.5 296.518 212.532C288.921 202.835 276.908 195.168 262.606 190.675ZM200.924 277.813C188.356 273.864 177.752 267.53 170.769 259.485C184.567 277.08 212.9 287.984 243.064 285.365C266.513 283.328 286.896 273.38 297.585 258.749C302.216 252.414 304.786 245.532 305.201 238.495C304.64 243.015 303.051 247.494 300.452 251.799C291.507 266.619 271.907 277.598 248.022 281.168C231.416 283.65 214.947 282.218 200.924 277.813ZM219.3 191.269C235.86 188.793 252.274 190.22 266.242 194.608C277.125 198.027 286.523 203.245 293.343 209.817C276.847 195.404 245.381 189.029 214.818 195.426C190.957 200.42 172.449 212.113 165.309 226.703C163.404 230.596 162.401 234.567 162.3 238.511C162.027 232.386 163.668 226.249 167.18 220.43C176.055 205.723 195.542 194.821 219.3 191.269ZM173.909 262.162C179.908 267.411 187.892 271.596 197.096 274.487C213.186 279.542 233.006 280.643 252.457 276.572C276.318 271.579 294.825 259.885 301.965 245.295C303.871 241.4 304.875 237.426 304.974 233.48C305.25 239.609 303.609 245.75 300.095 251.572C291.218 266.279 271.734 277.179 247.974 280.731C218.499 285.137 189.476 277.18 173.909 262.162ZM270.064 197.93C254.041 192.896 234.287 191.801 214.889 195.863C191.159 200.829 172.765 212.43 165.687 226.896C163.078 232.229 162.188 237.711 163.022 243.061C162.749 239.586 163.291 236.033 164.658 232.489C170.095 218.395 187.372 206.23 210.876 199.95C240.313 192.085 271.892 195.683 289.816 207.555C284.349 203.555 277.622 200.304 270.064 197.93ZM302.618 239.511C303.982 235.975 304.525 232.429 304.255 228.962C305.083 234.304 304.192 239.779 301.587 245.104C294.509 259.57 276.114 271.173 252.384 276.139C223.822 282.118 194.482 276.919 177.43 264.426C181.969 267.437 187.385 269.916 193.421 271.812C211.217 277.403 234.406 277.926 256.399 272.05C279.904 265.771 297.181 253.606 302.618 239.511ZM210.969 200.379C232.903 194.519 256.013 195.034 273.727 200.598C278.172 201.995 282.277 203.709 285.939 205.722C266.875 196.316 235.542 195.266 207.413 204.375C184.572 211.772 168.608 224.188 164.71 237.589C163.763 240.843 163.591 244.054 164.177 247.145C162.88 242.454 163.164 237.539 165.051 232.645C170.434 218.684 187.6 206.623 210.969 200.379ZM303.096 224.85C303.683 227.942 303.511 231.153 302.564 234.409C298.667 247.81 282.703 260.226 259.862 267.623C235.741 275.437 209.262 275.776 190.187 269.783C186.997 268.781 184.016 267.603 181.287 266.252C199.534 276.303 228.847 278.958 256.304 271.621C279.674 265.377 296.839 253.316 302.225 239.355C304.113 234.459 304.395 229.543 303.096 224.85ZM276.946 202.625C257.965 196.662 231.578 197.01 207.528 204.799C184.826 212.151 168.972 224.454 165.117 237.708C163.798 242.24 164.017 246.686 165.725 250.834C164.856 248.043 164.719 245.093 165.338 242.052C167.895 229.479 182.505 217.002 204.419 208.676C231.093 198.541 261.862 197.294 281.771 204.342C280.224 203.721 278.613 203.149 276.946 202.625ZM301.937 229.946C302.552 226.918 302.419 223.982 301.561 221.202C303.257 225.34 303.471 229.775 302.156 234.295C298.3 247.55 282.445 259.852 259.745 267.204C233.553 275.686 204.591 275.344 185.44 267.635C186.139 267.884 186.852 268.122 187.577 268.35C207.506 274.611 237.091 273.114 262.856 263.322C284.769 254.996 299.379 242.519 301.937 229.946ZM277.385 203.419C257.618 197.945 229.324 199.678 204.554 209.09C182.785 217.363 168.279 229.715 165.755 242.133C164.899 246.34 165.529 250.37 167.579 254.036C166.47 251.514 166.076 248.797 166.424 245.944C167.851 234.271 181.105 221.894 201.876 212.831C226.989 201.876 256.919 198.591 277.385 203.419ZM299.689 217.951C300.802 220.476 301.199 223.198 300.85 226.056C299.423 237.729 286.169 250.106 265.398 259.169C240.296 270.119 210.381 273.404 189.914 268.586C209.679 274.052 237.962 272.315 262.72 262.908C284.49 254.635 298.995 242.284 301.52 229.865C302.377 225.654 301.744 221.62 299.689 217.951ZM202.031 213.24C225.296 203.091 252.694 199.537 272.796 202.94C252.051 200.191 223.222 205.253 199.769 216.821C180.301 226.426 168.381 238.577 167.881 249.323C167.755 252.046 168.384 254.585 169.733 256.889C167.352 253.629 166.362 249.94 166.845 245.988C168.253 234.479 181.406 222.238 202.031 213.24ZM299.393 222.677C299.518 219.974 298.9 217.452 297.571 215.162C299.927 218.409 300.905 222.081 300.424 226.015C299.018 237.524 285.865 249.765 265.24 258.763C241.936 268.929 214.485 272.478 194.373 269.046C215.126 271.825 244.014 266.766 267.505 255.178C286.973 245.574 298.893 233.423 299.393 222.677ZM199.083 269.098C219.27 270.618 245.607 265.495 267.331 254.778C286.649 245.247 298.477 233.244 298.967 222.668C299.141 218.941 297.844 215.561 295.173 212.676C296.737 214.772 297.572 217.147 297.637 219.753C297.882 229.585 287.25 241.405 269.198 251.369C247.425 263.384 219.853 269.961 199.083 269.098ZM268.24 202.906C247.464 202.03 219.866 208.608 198.075 220.632C180.023 230.597 169.39 242.416 169.636 252.249C169.701 254.852 170.534 257.224 172.094 259.318C169.427 256.434 168.132 253.056 168.305 249.332C168.797 238.756 180.624 226.753 199.942 217.222C221.684 206.495 248.047 201.374 268.24 202.906ZM198.268 221.025C218.408 209.909 243.512 203.457 263.547 203.267C242.99 204.112 216.84 211.958 196.778 224.252C180.203 234.407 170.805 245.818 171.638 254.772C171.871 257.279 172.894 259.506 174.661 261.409C171.719 258.867 170.151 255.763 170.063 252.226C169.82 242.57 180.365 230.906 198.268 221.025ZM295.634 217.229C295.4 214.718 294.375 212.489 292.603 210.584C295.552 213.128 297.124 216.235 297.212 219.776C297.455 229.433 286.91 241.097 269.007 250.978C248.863 262.095 223.751 268.546 203.713 268.734C224.272 267.891 250.428 260.046 270.494 247.749C287.067 237.593 296.467 226.183 295.634 217.229ZM259.007 203.995C239.32 205.701 215.547 213.259 196.988 224.631C180.564 234.696 171.246 245.943 172.062 254.718C172.376 258.092 174.189 260.945 177.383 263.164C175.422 261.447 174.224 259.357 173.84 256.933C172.553 248.809 180.782 237.867 195.852 227.666C214.221 215.232 238.863 206.35 259.007 203.995ZM289.878 208.827C291.846 210.545 293.048 212.639 293.433 215.068C294.72 223.193 286.491 234.135 271.421 244.335C253.051 256.769 228.41 265.651 208.266 268.007C227.954 266.301 251.729 258.743 270.288 247.369C286.712 237.305 296.03 226.057 295.213 217.282C294.899 213.903 293.081 211.047 289.878 208.827ZM196.077 228.035C213.054 216.543 235.393 208.093 254.546 205.049C235.001 208.732 211.964 218.429 195.276 230.867C181.502 241.133 174.552 251.302 176.212 258.766C176.734 261.118 178.094 263.078 180.238 264.613C176.808 262.704 174.773 260.083 174.261 256.85C173.002 248.905 181.158 238.133 196.077 228.035ZM291.064 213.235C290.543 210.889 289.188 208.932 287.054 207.399C290.472 209.308 292.501 211.925 293.012 215.151C294.272 223.095 286.116 233.867 271.196 243.965C254.231 255.449 231.91 263.896 212.765 266.945C232.303 263.257 255.322 253.564 272 241.133C285.773 230.868 292.723 220.698 291.064 213.235ZM250.15 206.409C231.706 210.619 210.906 219.752 195.516 231.224C182.092 241.23 175.03 251.483 176.624 258.654C177.313 261.753 179.541 264.151 183.174 265.759C180.87 264.407 179.364 262.576 178.715 260.299C176.793 253.556 182.736 243.915 195.023 233.848C210.043 221.541 231.38 211.243 250.15 206.409ZM284.119 206.25C286.413 207.602 287.912 209.429 288.561 211.7C290.483 218.442 284.54 228.084 272.253 238.151C257.225 250.464 235.873 260.767 217.096 265.597C235.546 261.389 256.358 252.253 271.756 240.775C285.18 230.77 292.242 220.517 290.648 213.345C289.961 210.253 287.74 207.859 284.119 206.25ZM271.995 237.808C258.076 249.214 238.72 258.888 221.042 264.063C238.979 258.287 258.73 247.529 272.203 235.393C283.055 225.619 288.062 216.524 285.945 210.444C285.155 208.176 283.378 206.425 280.734 205.243C284.752 206.545 287.276 208.771 288.151 211.839C290.022 218.398 284.133 227.861 271.995 237.808ZM195.071 236.607C208.522 224.491 228.231 213.748 246.146 207.964C228.491 213.146 209.176 222.808 195.28 234.194C183.142 244.141 177.253 253.604 179.124 260.163C179.999 263.233 182.525 265.459 186.546 266.761C183.9 265.579 182.12 263.827 181.329 261.556C179.212 255.476 184.221 246.382 195.071 236.607ZM242.294 209.734C225.55 215.729 207.77 225.746 195.345 236.939C184.638 246.583 179.676 255.498 181.73 261.394C182.717 264.229 185.346 266.221 189.355 267.263C186.72 266.267 184.905 264.685 184.028 262.557C181.77 257.08 185.913 248.546 195.396 239.14C207.315 227.318 225.355 216.306 242.294 209.734ZM277.921 204.736C280.554 205.733 282.368 207.314 283.245 209.441C285.503 214.918 281.359 223.451 271.877 232.857C259.938 244.699 241.857 255.728 224.893 262.297C241.663 256.306 259.483 246.273 271.929 235.062C282.636 225.417 287.598 216.503 285.544 210.606C284.636 207.994 282.331 206.096 278.84 204.999C278.542 204.906 278.236 204.818 277.921 204.736ZM276.974 204.875C276.308 204.666 275.594 204.491 274.833 204.351C277.574 205.167 279.497 206.619 280.481 208.675C282.838 213.6 279.491 221.572 271.3 230.549C260.795 242.06 244.297 253.248 228.337 260.445C244.166 253.795 260.523 243.52 271.588 232.546C280.931 223.279 285.037 214.926 282.852 209.629C281.937 207.404 279.928 205.803 276.974 204.875ZM280.104 208.883C278.131 204.758 272.117 203.183 263.143 204.428C262.922 204.458 262.7 204.491 262.477 204.524C241.839 207.655 212.175 224.33 196.278 241.75C188.22 250.58 184.902 258.368 187.174 263.117C189.188 267.324 195.402 268.878 204.673 267.494C225.316 264.413 255.071 247.705 271 230.25C279.058 221.42 282.376 213.632 280.104 208.883ZM195.971 241.448C206.429 229.989 222.827 218.849 238.721 211.649C222.958 218.301 206.699 228.532 195.684 239.46C186.341 248.727 182.235 257.08 184.42 262.376C185.546 265.107 188.321 266.897 192.471 267.658C192.392 267.634 192.313 267.61 192.235 267.586C189.601 266.758 187.749 265.328 186.79 263.322C184.433 258.397 187.78 250.425 195.971 241.448Z" fill="url(#paint1_angular_12_21361)"/>
<path fill-rule="evenodd" clip-rule="evenodd" d="M236.861 212.652C240.041 214.345 241.246 218.297 239.553 221.477L213.415 270.552C211.722 273.732 207.771 274.938 204.591 273.244C201.411 271.55 200.206 267.599 201.9 264.42L228.037 215.343C229.731 212.163 233.681 210.959 236.861 212.652Z" fill="url(#paint2_linear_12_21361)"/>
<path d="M254.194 270.551C255.887 273.731 259.838 274.936 263.019 273.243C266.199 271.549 267.403 267.598 265.709 264.417L243.472 221.945L236.074 235.791L254.194 270.551Z" fill="url(#paint3_linear_12_21361)"/>
<path d="M278.289 212.424C281.706 213.567 283.549 217.264 282.406 220.681L268.542 261.964L260.207 245.966L270.032 216.541C271.175 213.124 274.872 211.28 278.289 212.424Z" fill="url(#paint4_linear_12_21361)"/>
<path d="M228.333 189.107C230.221 186.038 234.239 185.08 237.308 186.968L252.661 196.367L246.572 207.985L230.471 198.081C227.403 196.194 226.446 192.176 228.333 189.107Z" fill="url(#paint5_linear_12_21361)"/>
<path d="M279.715 213.054C282.784 214.942 283.742 218.96 281.854 222.029C279.967 225.097 275.949 226.054 272.88 224.167L249.699 209.909L255.773 198.327L279.715 213.054Z" fill="url(#paint6_linear_12_21361)"/>
<path fill-rule="evenodd" clip-rule="evenodd" d="M239.523 189.294C237.635 186.225 233.724 185.08 230.655 186.968L188.247 213.054C185.178 214.942 184.221 218.96 186.109 222.029C187.996 225.098 192.015 226.054 195.083 224.167L237.491 198.08C240.56 196.193 241.411 192.363 239.523 189.294Z" fill="url(#paint7_linear_12_21361)"/>
<path fill-rule="evenodd" clip-rule="evenodd" d="M189.054 212.683C192.389 211.318 196.757 212.735 198.121 216.069L209.425 242.452L201.889 256.592L185.488 221.192C184.123 217.857 185.719 214.047 189.054 212.683Z" fill="url(#paint8_linear_12_21361)"/>
<path fill-rule="evenodd" clip-rule="evenodd" d="M221.327 263.422L237.419 275.038C240.413 277.042 240.433 280.596 238.429 283.589C236.425 286.583 233.377 287.45 230.382 285.445L214.859 275.515L221.327 263.422Z" fill="url(#paint9_linear_12_21361)"/>
<path fill-rule="evenodd" clip-rule="evenodd" d="M246.295 263.429L230.251 275.037C227.256 277.042 227.257 280.74 229.262 283.734C231.266 286.728 234.393 287.215 237.386 285.211L252.732 275.749L246.295 263.429Z" fill="url(#paint10_linear_12_21361)"/>
<defs>
<filter id="filter0_f_12_21361" x="0.613281" y="0.470612" width="465.131" height="471.059" filterUnits="userSpaceOnUse" color-interpolation-filters="sRGB">
<feFlood flood-opacity="0" result="BackgroundImageFix"/>
<feBlend mode="normal" in="SourceGraphic" in2="BackgroundImageFix" result="shape"/>
<feGaussianBlur stdDeviation="80" result="effect1_foregroundBlur_12_21361"/>
</filter>
<radialGradient id="paint0_angular_12_21361" cx="0" cy="0" r="1" gradientUnits="userSpaceOnUse" gradientTransform="translate(233.178 236) rotate(107.44) scale(75.839 72.2277)">
<stop offset="0.138542" stop-color="#00FFD1"/>
<stop offset="0.216667" stop-color="#19C8FF"/>
<stop offset="0.596875" stop-color="#FA0CFF"/>
<stop offset="0.690625" stop-color="#19C8FF"/>
<stop offset="0.898958" stop-color="#00FFAA"/>
<stop offset="1" stop-color="#29B2FF"/>
</radialGradient>
<radialGradient id="paint1_angular_12_21361" cx="0" cy="0" r="1" gradientUnits="userSpaceOnUse" gradientTransform="translate(233.637 236) rotate(107.44) scale(75.839 72.2277)">
<stop offset="0.138542" stop-color="#00FFD1" stop-opacity="0.02"/>
<stop offset="0.217765" stop-color="#19C8FF" stop-opacity="0.08"/>
<stop offset="0.596875" stop-color="#FA0CFF"/>
<stop offset="0.690625" stop-color="#19C8FF"/>
<stop offset="0.898958" stop-color="#00FFAA"/>
<stop offset="1" stop-color="#29B2FF"/>
</radialGradient>
<linearGradient id="paint2_linear_12_21361" x1="206.056" y1="269.956" x2="234.805" y2="220.128" gradientUnits="userSpaceOnUse">
<stop stop-color="#8B23FC"/>
<stop offset="1" stop-color="#E73C89"/>
</linearGradient>
<linearGradient id="paint3_linear_12_21361" x1="240.536" y1="227.329" x2="257.226" y2="264.442" gradientUnits="userSpaceOnUse">
<stop stop-color="#E83B7F"/>
<stop offset="1" stop-color="#D53FEE"/>
</linearGradient>
<linearGradient id="paint4_linear_12_21361" x1="277.646" y1="220.453" x2="262.188" y2="254.019" gradientUnits="userSpaceOnUse">
<stop stop-color="#EA3A6D"/>
<stop offset="1" stop-color="#B132A5"/>
</linearGradient>
<linearGradient id="paint5_linear_12_21361" x1="237.849" y1="194.502" x2="275.689" y2="214.604" gradientUnits="userSpaceOnUse">
<stop stop-color="#C63692"/>
<stop offset="1" stop-color="#E43A73"/>
</linearGradient>
<linearGradient id="paint6_linear_12_21361" x1="237.849" y1="194.502" x2="275.69" y2="214.604" gradientUnits="userSpaceOnUse">
<stop stop-color="#C63692"/>
<stop offset="1" stop-color="#E43A73"/>
</linearGradient>
<linearGradient id="paint7_linear_12_21361" x1="234.509" y1="192.165" x2="190.275" y2="221.004" gradientUnits="userSpaceOnUse">
<stop stop-color="#C63591"/>
<stop offset="0.880566" stop-color="#1902FD"/>
</linearGradient>
<linearGradient id="paint8_linear_12_21361" x1="190.175" y1="214.847" x2="206.276" y2="252.815" gradientUnits="userSpaceOnUse">
<stop stop-color="#1400FF"/>
<stop offset="1" stop-color="#8B22FC"/>
</linearGradient>
<linearGradient id="paint9_linear_12_21361" x1="232.305" y1="274.481" x2="200.711" y2="248.843" gradientUnits="userSpaceOnUse">
<stop stop-color="#C934FA"/>
<stop offset="1" stop-color="#1400FF"/>
</linearGradient>
<linearGradient id="paint10_linear_12_21361" x1="250.731" y1="271.631" x2="232.4" y2="282.74" gradientUnits="userSpaceOnUse">
<stop stop-color="#E845FB"/>
<stop offset="1" stop-color="#C834F9"/>
</linearGradient>
</defs>
</svg>
