<svg width="160" height="160" viewBox="0 0 160 160" fill="none" xmlns="http://www.w3.org/2000/svg">
<rect width="160" height="160" rx="24" fill="white" fill-opacity="0.04"/>
<path fill-rule="evenodd" clip-rule="evenodd" d="M59.8873 62.6527C57.5 65.9385 57.5 70.6257 57.5 80C57.5 89.3743 57.5 94.0615 59.8873 97.3473C60.6583 98.4085 61.5915 99.3417 62.6527 100.113C65.9385 102.5 70.6257 102.5 80 102.5C89.3743 102.5 94.0615 102.5 97.3473 100.113C98.4085 99.3417 99.3417 98.4085 100.113 97.3473C102.5 94.0615 102.5 89.3743 102.5 80C102.5 70.6257 102.5 65.9385 100.113 62.6527C99.3417 61.5915 98.4085 60.6583 97.3473 59.8873C94.0615 57.5 89.3743 57.5 80 57.5C70.6257 57.5 65.9385 57.5 62.6527 59.8873C61.5915 60.6583 60.6583 61.5915 59.8873 62.6527ZM81.875 72.5C81.875 71.4645 81.0355 70.625 80 70.625C78.9645 70.625 78.125 71.4645 78.125 72.5V78.125H72.5C71.4645 78.125 70.625 78.9645 70.625 80C70.625 81.0355 71.4645 81.875 72.5 81.875H78.125V87.5C78.125 88.5355 78.9645 89.375 80 89.375C81.0355 89.375 81.875 88.5355 81.875 87.5V81.875H87.5C88.5355 81.875 89.375 81.0355 89.375 80C89.375 78.9645 88.5355 78.125 87.5 78.125H81.875V72.5Z" fill="white"/>
</svg>
