<svg width="20" height="20" viewBox="0 0 20 20" fill="none" xmlns="http://www.w3.org/2000/svg">
<path fill-rule="evenodd" clip-rule="evenodd" d="M2.98828 6.50355C2.98828 6.11124 3.30631 5.79321 3.69862 5.79321H5.60746C5.94382 5.79321 6.23407 6.02912 6.30281 6.35838L6.77804 8.63458H15.7744C16.559 8.63458 17.1951 9.27064 17.1951 10.0553V13.1275C17.1951 13.8 16.7235 14.3804 16.0653 14.5181L8.34616 16.1326C7.57811 16.2932 6.82526 15.8008 6.66469 15.0327L5.03011 7.21389H3.69862C3.30631 7.21389 2.98828 6.89586 2.98828 6.50355ZM7.90806 14.047C7.98825 14.4311 8.3647 14.6774 8.74879 14.5971L15.2095 13.2462C15.5386 13.1774 15.7744 12.8872 15.7744 12.5509V10.7656C15.7744 10.3733 15.4564 10.0553 15.0641 10.0553H7.07466L7.90806 14.047Z" fill="#2FDE8A"/>
<ellipse cx="7.50833" cy="18.7083" rx="1.29153" ry="1.29153" fill="#2FDE8A"/>
<circle cx="13.9654" cy="18.7083" r="1.29153" fill="#2FDE8A"/>
<path fill-rule="evenodd" clip-rule="evenodd" d="M10.8449 6.50269C11.2587 6.50269 11.5941 6.16726 11.5941 5.7535V0.808842C11.5941 0.395075 11.2587 0.0596514 10.8449 0.0596514C10.4311 0.0596514 10.0957 0.395075 10.0957 0.808842V5.7535C10.0957 6.16726 10.4311 6.50269 10.8449 6.50269Z" fill="#2FDE8A"/>
<path fill-rule="evenodd" clip-rule="evenodd" d="M8.2917 3.36138C8.58428 3.65395 9.05864 3.65395 9.35121 3.36138L10.8443 1.86832L12.3373 3.36138C12.6299 3.65395 13.1043 3.65395 13.3968 3.36138C13.6894 3.0688 13.6894 2.59444 13.3968 2.30186L11.374 0.27905C11.0814 -0.0135271 10.6071 -0.0135271 10.3145 0.27905L8.2917 2.30186C7.99912 2.59444 7.99912 3.0688 8.2917 3.36138Z" fill="#2FDE8A"/>
</svg>
